<svg xmlns="http://www.w3.org/2000/svg" viewBox="0 0 800 600" width="800" height="600">
  <defs>
    <!-- Modern drop shadow -->
    <filter id="shadow" x="-20%" y="-20%" width="140%" height="140%">
      <feDropShadow dx="0" dy="10" stdDeviation="15" flood-color="#1A202C" flood-opacity="0.1" />
    </filter>
    <filter id="arrow-shadow" x="-10%" y="-10%" width="120%" height="120%">
      <feDropShadow dx="0" dy="2" stdDeviation="3" flood-color="#4A5568" flood-opacity="0.15" />
    </filter>
    
    <!-- Gradients for fun aesthetic -->
    <linearGradient id="grad-blue" x1="0%" y1="0%" x2="100%" y2="100%">
      <stop offset="0%" stop-color="#4FD1C5" />
      <stop offset="100%" stop-color="#319795" />
    </linearGradient>
    <linearGradient id="grad-purple" x1="0%" y1="0%" x2="100%" y2="100%">
      <stop offset="0%" stop-color="#B794F4" />
      <stop offset="100%" stop-color="#805AD5" />
    </linearGradient>
    <linearGradient id="grad-orange" x1="0%" y1="0%" x2="100%" y2="100%">
      <stop offset="0%" stop-color="#F6AD55" />
      <stop offset="100%" stop-color="#DD6B20" />
    </linearGradient>
    <linearGradient id="grad-pink" x1="0%" y1="0%" x2="100%" y2="100%">
      <stop offset="0%" stop-color="#F687B3" />
      <stop offset="100%" stop-color="#D53F8C" />
    </linearGradient>

    <!-- Clean arrowhead -->
    <marker id="arrow" viewBox="0 0 14 14" refX="10" refY="7" markerWidth="8" markerHeight="8" orient="auto">
      <path d="M 2 2 L 12 7 L 2 12 Q 4 7 2 2 Z" fill="#A0AEC0" />
    </marker>
  </defs>

  <rect width="800" height="600" fill="#ffffff" />

  <!-- Smooth arcs -->
  <g stroke="#A0AEC0" stroke-width="6" fill="none" stroke-linecap="round" filter="url(#arrow-shadow)">
    <path d="M 474.92 114.56 A 200 200 0 0 1 585.44 225.08" marker-end="url(#arrow)" />
    <path d="M 585.44 374.92 A 200 200 0 0 1 474.92 485.44" marker-end="url(#arrow)" />
    <path d="M 325.08 485.44 A 200 200 0 0 1 214.56 374.92" marker-end="url(#arrow)" />
    <path d="M 214.56 225.08 A 200 200 0 0 1 325.08 114.56" marker-end="url(#arrow)" />
  </g>

  <!-- Nodes -->
  <!-- Top: Write Code (Blue) -->
  <g transform="translate(400, 100)">
    <circle cx="0" cy="0" r="65" fill="#ffffff" filter="url(#shadow)" />
    <circle cx="0" cy="0" r="65" fill="url(#grad-blue)" opacity="0.1" />
    <circle cx="0" cy="0" r="65" fill="none" stroke="url(#grad-blue)" stroke-width="4" />
    <text x="0" y="8" font-family="system-ui, -apple-system, sans-serif" font-size="42" text-anchor="middle" dominant-baseline="middle">🧑‍💻</text>
  </g>

  <!-- Right: Run (Purple) -->
  <g transform="translate(600, 300)">
    <circle cx="0" cy="0" r="65" fill="#ffffff" filter="url(#shadow)" />
    <circle cx="0" cy="0" r="65" fill="url(#grad-purple)" opacity="0.1" />
    <circle cx="0" cy="0" r="65" fill="none" stroke="url(#grad-purple)" stroke-width="4" />
    <text x="0" y="8" font-family="system-ui, -apple-system, sans-serif" font-size="42" text-anchor="middle" dominant-baseline="middle">▶️</text>
  </g>

  <!-- Bottom: Audit (Orange) -->
  <g transform="translate(400, 500)">
    <circle cx="0" cy="0" r="65" fill="#ffffff" filter="url(#shadow)" />
    <circle cx="0" cy="0" r="65" fill="url(#grad-orange)" opacity="0.1" />
    <circle cx="0" cy="0" r="65" fill="none" stroke="url(#grad-orange)" stroke-width="4" />
    <text x="0" y="8" font-family="system-ui, -apple-system, sans-serif" font-size="42" text-anchor="middle" dominant-baseline="middle">📊</text>
  </g>

  <!-- Left: Fix Bugs (Pink) -->
  <g transform="translate(200, 300)">
    <circle cx="0" cy="0" r="65" fill="#ffffff" filter="url(#shadow)" />
    <circle cx="0" cy="0" r="65" fill="url(#grad-pink)" opacity="0.1" />
    <circle cx="0" cy="0" r="65" fill="none" stroke="url(#grad-pink)" stroke-width="4" />
    <text x="0" y="8" font-family="system-ui, -apple-system, sans-serif" font-size="42" text-anchor="middle" dominant-baseline="middle">🛠️</text>
  </g>

</svg>